{
	"asset":{
		"generator":"Khronos glTF Blender I/O v3.6.27",
		"version":"2.0"
	},
	"extensionsUsed":[
		"KHR_materials_specular",
		"KHR_materials_ior"
	],
	"scene":0,
	"scenes":[
		{
			"name":"Scene",
			"nodes":[
				0,
				1,
				2,
				3,
				5,
				7,
				9,
				11,
				13,
				14,
				16
			]
		}
	],
	"nodes":[
		{
			"mesh":0,
			"name":"Ground"
		},
		{
			"mesh":1,
			"name":"Ball-E1",
			"translation":[
				2.3567967414855957,
				4.143148899078369,
				-11.03953742980957
			]
		},
		{
			"mesh":1,
			"name":"Ball-E2",
			"translation":[
				8.34853744506836,
				4.143148899078369,
				-11.03953742980957
			]
		},
		{
			"mesh":2,
			"name":"watchtower",
			"rotation":[
				0,
				0.17590388655662537,
				0,
				0.9844074249267578
			],
			"translation":[
				-16.435832977294922,
				-0.05604224279522896,
				17.052608489990234
			]
		},
		{
			"mesh":3,
			"name":"leavesT2"
		},
		{
			"children":[
				4
			],
			"mesh":4,
			"name":"treeT2",
			"rotation":[
				0,
				0.296071857213974,
				0,
				0.955165684223175
			],
			"translation":[
				12.902256965637207,
				0,
				18.013805389404297
			]
		},
		{
			"mesh":3,
			"name":"leavesT2.001"
		},
		{
			"children":[
				6
			],
			"mesh":4,
			"name":"treeT2.001",
			"rotation":[
				0,
				0.21862001717090607,
				0,
				0.975810170173645
			],
			"translation":[
				13.355729103088379,
				-1.7390538454055786,
				-15.66576099395752
			]
		},
		{
			"mesh":3,
			"name":"leavesT2.002"
		},
		{
			"children":[
				8
			],
			"mesh":4,
			"name":"treeT2.002",
			"rotation":[
				-0.08185900747776031,
				0.34597331285476685,
				0.03504776582121849,
				0.9340092539787292
			],
			"translation":[
				-5.1428117752075195,
				-1.6335080862045288,
				1.4799461364746094
			]
		},
		{
			"mesh":3,
			"name":"leavesT2.003"
		},
		{
			"children":[
				10
			],
			"mesh":4,
			"name":"treeT2.003",
			"rotation":[
				-0.027745813131332397,
				0.8381182551383972,
				0.08800221979618073,
				0.5376277565956116
			],
			"scale":[
				0.8195866942405701,
				0.8195867538452148,
				0.8195867538452148
			],
			"translation":[
				0.9265313148498535,
				0.46546638011932373,
				12.974689483642578
			]
		},
		{
			"mesh":3,
			"name":"leavesT2.004"
		},
		{
			"children":[
				12
			],
			"mesh":4,
			"name":"treeT2.004",
			"rotation":[
				0,
				0.8454698324203491,
				0,
				0.5340231657028198
			],
			"scale":[
				1,
				1.2576347589492798,
				1
			],
			"translation":[
				18.62868881225586,
				-1.9474971294403076,
				6.832052230834961
			]
		},
		{
			"mesh":1,
			"name":"Ball-E1.001",
			"translation":[
				-13.605609893798828,
				4.143148899078369,
				-11.03953742980957
			]
		},
		{
			"mesh":3,
			"name":"leavesT2.005"
		},
		{
			"children":[
				15
			],
			"mesh":4,
			"name":"treeT2.005",
			"rotation":[
				-0.017124591395258904,
				0.35684871673583984,
				-0.004069893155246973,
				0.9339963793754578
			],
			"scale":[
				1.0011590719223022,
				1.1295886039733887,
				1.001664161682129
			],
			"translation":[
				-18.667236328125,
				-1.6335080862045288,
				1.4799461364746094
			]
		}
	],
	"materials":[
		{
			"doubleSided":true,
			"extensions":{
				"KHR_materials_specular":{
					"specularColorFactor":[
						1.6276137792804137,
						1.6276137792804137,
						1.6276137792804137
					]
				},
				"KHR_materials_ior":{
					"ior":1.4500000476837158
				}
			},
			"name":"Grass",
			"normalTexture":{
				"index":0
			},
			"pbrMetallicRoughness":{
				"baseColorTexture":{
					"index":1
				},
				"metallicFactor":0
			}
		},
		{
			"doubleSided":true,
			"extensions":{
				"KHR_materials_specular":{
					"specularColorFactor":[
						0.6359550261539235,
						0.6359550261539235,
						0.6359550261539235
					]
				},
				"KHR_materials_ior":{
					"ior":1.4500000476837158
				}
			},
			"name":"Metal",
			"pbrMetallicRoughness":{
				"baseColorTexture":{
					"index":2
				},
				"metallicRoughnessTexture":{
					"index":3
				}
			}
		},
		{
			"doubleSided":true,
			"extensions":{
				"KHR_materials_specular":{
					"specularColorFactor":[
						0.42037705477998155,
						0.42037705477998155,
						0.42037705477998155
					]
				},
				"KHR_materials_ior":{
					"ior":1.4500000476837158
				}
			},
			"name":"watchtower",
			"normalTexture":{
				"index":4
			},
			"pbrMetallicRoughness":{
				"baseColorTexture":{
					"index":5
				},
				"metallicFactor":0,
				"roughnessFactor":0.5
			}
		},
		{
			"doubleSided":true,
			"extensions":{
				"KHR_materials_specular":{
					"specularColorFactor":[
						1.5413825341932657,
						1.5413825341932657,
						1.5413825341932657
					]
				},
				"KHR_materials_ior":{
					"ior":1.4500000476837158
				}
			},
			"name":"Leaves",
			"pbrMetallicRoughness":{
				"baseColorTexture":{
					"index":6
				},
				"metallicFactor":0,
				"roughnessFactor":0.9681817889213562
			}
		},
		{
			"doubleSided":true,
			"extensions":{
				"KHR_materials_specular":{
					"specularColorFactor":[
						1.5413825341932657,
						1.5413825341932657,
						1.5413825341932657
					]
				},
				"KHR_materials_ior":{
					"ior":1.4500000476837158
				}
			},
			"name":"Material.001",
			"pbrMetallicRoughness":{
				"baseColorTexture":{
					"index":7
				},
				"metallicFactor":0,
				"roughnessFactor":0.9681817889213562
			}
		}
	],
	"meshes":[
		{
			"name":"Grid",
			"primitives":[
				{
					"attributes":{
						"POSITION":0,
						"NORMAL":1,
						"TEXCOORD_0":2
					},
					"indices":3,
					"material":0
				}
			]
		},
		{
			"name":"Ball",
			"primitives":[
				{
					"attributes":{
						"POSITION":4,
						"NORMAL":5,
						"TEXCOORD_0":6
					},
					"indices":7,
					"material":1
				}
			]
		},
		{
			"name":"watchtower",
			"primitives":[
				{
					"attributes":{
						"POSITION":8,
						"NORMAL":9,
						"TEXCOORD_0":10
					},
					"indices":11,
					"material":2
				}
			]
		},
		{
			"name":"leavesT2",
			"primitives":[
				{
					"attributes":{
						"POSITION":12,
						"NORMAL":13,
						"TEXCOORD_0":14
					},
					"indices":15,
					"material":3
				}
			]
		},
		{
			"name":"treeT2",
			"primitives":[
				{
					"attributes":{
						"POSITION":16,
						"NORMAL":17,
						"TEXCOORD_0":18
					},
					"indices":19,
					"material":4
				}
			]
		}
	],
	"textures":[
		{
			"sampler":0,
			"source":0
		},
		{
			"sampler":0,
			"source":1
		},
		{
			"sampler":0,
			"source":2
		},
		{
			"sampler":0,
			"source":3
		},
		{
			"sampler":0,
			"source":4
		},
		{
			"sampler":0,
			"source":5
		},
		{
			"sampler":0,
			"source":6
		},
		{
			"sampler":0,
			"source":7
		}
	],
	"images":[
		{
			"mimeType":"image/jpeg",
			"name":"wispy-grass-meadow_normal-ogl",
			"uri":"wispy-grass-meadow_normal-ogl.jpg"
		},
		{
			"mimeType":"image/jpeg",
			"name":"wispy-grass-meadow_albedo",
			"uri":"wispy-grass-meadow_albedo.jpg"
		},
		{
			"mimeType":"image/jpeg",
			"name":"rusted-steel_albedo",
			"uri":"rusted-steel_albedo.jpg"
		},
		{
			"mimeType":"image/jpeg",
			"name":"rusted-steel_metallic-rusted-steel_roughness",
			"uri":"rusted-steel_metallic-rusted-steel_roughness.jpg"
		},
		{
			"mimeType":"image/jpeg",
			"name":"Wood_Tower_Nor.jpg",
			"uri":"Wood_Tower_Nor_jpg.jpg"
		},
		{
			"mimeType":"image/jpeg",
			"name":"Wood_Tower_Col",
			"uri":"Wood_Tower_Col.jpg"
		},
		{
			"mimeType":"image/jpeg",
			"name":"Leaves0120_35_S.png",
			"uri":"Leaves0120_35_S_png.jpg"
		},
		{
			"mimeType":"image/jpeg",
			"name":"BarkDecidious0194_7_S.jpg",
			"uri":"BarkDecidious0194_7_S_jpg.jpg"
		}
	],
	"accessors":[
		{
			"bufferView":0,
			"componentType":5126,
			"count":400,
			"max":[
				25,
				3.337482452392578,
				25.002750396728516
			],
			"min":[
				-25,
				0,
				-25
			],
			"type":"VEC3"
		},
		{
			"bufferView":1,
			"componentType":5126,
			"count":400,
			"type":"VEC3"
		},
		{
			"bufferView":2,
			"componentType":5126,
			"count":400,
			"type":"VEC2"
		},
		{
			"bufferView":3,
			"componentType":5123,
			"count":2166,
			"type":"SCALAR"
		},
		{
			"bufferView":4,
			"componentType":5126,
			"count":174,
			"max":[
				1,
				1,
				0.9999999403953552
			],
			"min":[
				-0.9999999403953552,
				-1,
				-0.9999999403953552
			],
			"type":"VEC3"
		},
		{
			"bufferView":5,
			"componentType":5126,
			"count":174,
			"type":"VEC3"
		},
		{
			"bufferView":6,
			"componentType":5126,
			"count":174,
			"type":"VEC2"
		},
		{
			"bufferView":7,
			"componentType":5123,
			"count":960,
			"type":"SCALAR"
		},
		{
			"bufferView":8,
			"componentType":5126,
			"count":4018,
			"max":[
				2.110931634902954,
				7.648165702819824,
				2.110999822616577
			],
			"min":[
				-2.110931634902954,
				0,
				-2.1108622550964355
			],
			"type":"VEC3"
		},
		{
			"bufferView":9,
			"componentType":5126,
			"count":4018,
			"type":"VEC3"
		},
		{
			"bufferView":10,
			"componentType":5126,
			"count":4018,
			"type":"VEC2"
		},
		{
			"bufferView":11,
			"componentType":5123,
			"count":6108,
			"type":"SCALAR"
		},
		{
			"bufferView":12,
			"componentType":5126,
			"count":362852,
			"max":[
				3.129948854446411,
				15.049644470214844,
				3.675290584564209
			],
			"min":[
				-2.8939208984375,
				4.731919288635254,
				-3.0671069622039795
			],
			"type":"VEC3"
		},
		{
			"bufferView":13,
			"componentType":5126,
			"count":362852,
			"type":"VEC3"
		},
		{
			"bufferView":14,
			"componentType":5126,
			"count":362852,
			"type":"VEC2"
		},
		{
			"bufferView":15,
			"componentType":5125,
			"count":544278,
			"type":"SCALAR"
		},
		{
			"bufferView":16,
			"componentType":5126,
			"count":172576,
			"max":[
				3.0667803287506104,
				14.909534454345703,
				3.5063767433166504
			],
			"min":[
				-2.761658191680908,
				1.1651899814605713,
				-2.9035916328430176
			],
			"type":"VEC3"
		},
		{
			"bufferView":17,
			"componentType":5126,
			"count":172576,
			"type":"VEC3"
		},
		{
			"bufferView":18,
			"componentType":5126,
			"count":172576,
			"type":"VEC2"
		},
		{
			"bufferView":19,
			"componentType":5125,
			"count":366192,
			"type":"SCALAR"
		}
	],
	"bufferViews":[
		{
			"buffer":0,
			"byteLength":4800,
			"byteOffset":0,
			"target":34962
		},
		{
			"buffer":0,
			"byteLength":4800,
			"byteOffset":4800,
			"target":34962
		},
		{
			"buffer":0,
			"byteLength":3200,
			"byteOffset":9600,
			"target":34962
		},
		{
			"buffer":0,
			"byteLength":4332,
			"byteOffset":12800,
			"target":34963
		},
		{
			"buffer":0,
			"byteLength":2088,
			"byteOffset":17132,
			"target":34962
		},
		{
			"buffer":0,
			"byteLength":2088,
			"byteOffset":19220,
			"target":34962
		},
		{
			"buffer":0,
			"byteLength":1392,
			"byteOffset":21308,
			"target":34962
		},
		{
			"buffer":0,
			"byteLength":1920,
			"byteOffset":22700,
			"target":34963
		},
		{
			"buffer":0,
			"byteLength":48216,
			"byteOffset":24620,
			"target":34962
		},
		{
			"buffer":0,
			"byteLength":48216,
			"byteOffset":72836,
			"target":34962
		},
		{
			"buffer":0,
			"byteLength":32144,
			"byteOffset":121052,
			"target":34962
		},
		{
			"buffer":0,
			"byteLength":12216,
			"byteOffset":153196,
			"target":34963
		},
		{
			"buffer":0,
			"byteLength":4354224,
			"byteOffset":165412,
			"target":34962
		},
		{
			"buffer":0,
			"byteLength":4354224,
			"byteOffset":4519636,
			"target":34962
		},
		{
			"buffer":0,
			"byteLength":2902816,
			"byteOffset":8873860,
			"target":34962
		},
		{
			"buffer":0,
			"byteLength":2177112,
			"byteOffset":11776676,
			"target":34963
		},
		{
			"buffer":0,
			"byteLength":2070912,
			"byteOffset":13953788,
			"target":34962
		},
		{
			"buffer":0,
			"byteLength":2070912,
			"byteOffset":16024700,
			"target":34962
		},
		{
			"buffer":0,
			"byteLength":1380608,
			"byteOffset":18095612,
			"target":34962
		},
		{
			"buffer":0,
			"byteLength":1464768,
			"byteOffset":19476220,
			"target":34963
		}
	],
	"samplers":[
		{
			"magFilter":9729,
			"minFilter":9987
		}
	],
	"buffers":[
		{
			"byteLength":20940988,
			"uri":"scene.bin"
		}
	]
}
